<mxfile host="app.diagrams.net" modified="2023-04-10T17:49:25.466Z" agent="Mozilla/5.0 (Windows NT 10.0; Win64; x64) AppleWebKit/537.36 (KHTML, like Gecko) Chrome/112.0.0.0 Safari/537.36" version="21.1.5" etag="ONdYvkxfD7OuLTRMDk9O" type="github">
  <diagram name="Page-1" id="zU9FCOmQo92SFkCOKhGb">
    <mxGraphModel>
      <root>
        <mxCell id="0" />
        <mxCell id="1" parent="0" />
      </root>
    </mxGraphModel>
  </diagram>
</mxfile>
